<svg viewBox="0 0 700 262" xmlns="http://www.w3.org/2000/svg" class="bp-fig"><defs><marker id="bfArrow" markerUnits="userSpaceOnUse" markerWidth="9" markerHeight="8" refX="8" refY="3" orient="auto-start-reverse"><path d="M0,0 L8,3 L0,6 Z" fill="#1a4a7a"/></marker><pattern id="bfStone" width="9" height="9" patternUnits="userSpaceOnUse" patternTransform="rotate(30)"><rect width="9" height="9" fill="#dfe6ea"/><line x1="0" y1="0" x2="0" y2="9" stroke="#8fa3b0" stroke-width="1.1"/></pattern><pattern id="bfTurf" width="8" height="8" patternUnits="userSpaceOnUse"><rect width="8" height="8" fill="#dcebd6"/><path d="M1 8 L3 3 M5 8 L7 2" stroke="#78a36f" stroke-width="0.9"/></pattern><pattern id="bfConcrete" width="12" height="12" patternUnits="userSpaceOnUse"><rect width="12" height="12" fill="#e2e5e7"/><path d="M0 6 H12 M6 0 V12" stroke="#9aa3a8" stroke-width="0.7"/></pattern><pattern id="bfMurum" width="6" height="6" patternUnits="userSpaceOnUse"><rect width="6" height="6" fill="#f0e4cf"/><circle cx="3" cy="3" r="0.9" fill="#c2a06a"/></pattern><pattern id="bfRubble" width="13" height="13" patternUnits="userSpaceOnUse"><rect width="13" height="13" fill="#e6e9e5"/><path d="M2 7 L6 2 L10 7 L6 11 Z" fill="none" stroke="#7c8b78" stroke-width="1"/></pattern><pattern id="bfFilter" width="7" height="7" patternUnits="userSpaceOnUse"><rect width="7" height="7" fill="#eef3e8"/><circle cx="2" cy="2" r="0.8" fill="#8aa06a"/><circle cx="5" cy="5" r="0.8" fill="#8aa06a"/></pattern></defs><path d="M -16.6 13.4 L 285.7 214.9 L 440.0 60.6 L 729.5 253.5 L 729.5 253.5 L -16.6 253.5 Z" fill="#efe9df" stroke="#6b5a44" stroke-width="1.7"/><line x1="285.7" y1="35.6" x2="285.7" y2="45.6" stroke="#1a4a7a" stroke-width="0.7"/><line x1="440.0" y1="35.6" x2="440.0" y2="45.6" stroke="#1a4a7a" stroke-width="0.7"/><line x1="285.7" y1="40.6" x2="440.0" y2="40.6" stroke="#1a4a7a" stroke-width="0.9" marker-start="url(#bfArrow)" marker-end="url(#bfArrow)"/><text x="362.9" y="35.6" text-anchor="middle" fill="#1a4a7a" font-size="11" font-family="Arial">1.20</text><text x="279.7" y="206.9" text-anchor="end" fill="#33505f" font-size="10.5" font-family="Arial">Shelf RL 98.00</text><text x="362.9" y="163.8" text-anchor="middle" fill="#5a7a90" font-size="10.5" font-family="Arial">cross-fall 1 in 1.00</text><text x="179.6" y="160.2" text-anchor="middle" fill="#5a7a90" font-size="10.5" font-family="Arial">face above 1 in 1.50</text><text x="526.9" y="134.5" text-anchor="middle" fill="#5a7a90" font-size="10.5" font-family="Arial">face below 1 in 1.50</text><text x="674.0" y="16.0" text-anchor="end" fill="#7a6a52" font-size="10.5" font-family="Arial">shelf is part of the design face</text><rect x="22.0" y="246" width="128.6" height="5" fill="#222" stroke="#222" stroke-width="0.7"/><text x="22.0" y="242.0" text-anchor="start" fill="#555" font-size="10" font-family="Arial">0</text><text x="150.6" y="242.0" text-anchor="middle" fill="#555" font-size="10" font-family="Arial">1 m</text><text x="678.0" y="242.0" text-anchor="end" fill="#8a9aa5" font-size="10" font-family="Arial">All dimensions in metres</text></svg>